<svg xmlns="http://www.w3.org/2000/svg"  viewBox="0 0 50 50" width="50px" height="50px"><path d="M 6.8125 11 C 6.417969 11.078125 6.109375 11.386719 6.03125 11.78125 L 0.03125 37.78125 C -0.0351563 38.078125 0.0351563 38.386719 0.222656 38.621094 C 0.414063 38.859375 0.699219 38.996094 1 39 L 49 39 C 49.300781 38.996094 49.585938 38.859375 49.777344 38.621094 C 49.964844 38.386719 50.035156 38.078125 49.96875 37.78125 L 43.96875 11.78125 C 43.867188 11.328125 43.464844 11.003906 43 11 L 7 11 C 6.96875 11 6.9375 11 6.90625 11 C 6.875 11 6.84375 11 6.8125 11 Z M 7.78125 13 L 24 13 L 24 14 L 26 14 L 26 13 L 42.21875 13 L 47.75 37 L 26 37 L 26 34 L 24 34 L 24 37 L 2.25 37 Z M 24 16 L 24 20 L 26 20 L 26 16 Z M 24 22 L 24 26 L 26 26 L 26 22 Z M 24 28 L 24 32 L 26 32 L 26 28 Z"/></svg>